<svg xmlns="http://www.w3.org/2000/svg" version="1.1" xmlns:xlink="http://www.w3.org/1999/xlink" xmlns:svgjs="http://svgjs.dev/svgjs" width="1920" height="1080" preserveAspectRatio="none" viewBox="0 0 1920 1080"><g mask="url(&quot;#SvgjsMask1671&quot;)" fill="none"><rect width="1920" height="1080" x="0" y="0" fill="rgba(255, 255, 255, 1)"></rect><path d="M2016 1080L0 1080 L0 583.99Q122.56 610.55, 96 733.1Q61.37 602.47, 192 567.84Q278.75 494.6, 352 581.35Q461.03 594.38, 448 703.42Q535.25 630.66, 608 717.91Q647.04 596.95, 768 635.99Q825.55 597.54, 864 655.08Q967.27 598.36, 1024 701.63Q1028.6 610.23, 1120 614.83Q1187.45 522.28, 1280 589.72Q1398.87 548.59, 1440 667.46Q1497.53 564.99, 1600 622.52Q1729.41 591.93, 1760 721.35Q1819.81 621.16, 1920 680.97Q1929.58 594.55, 2016 604.12z" fill="#182f5d"></path><path d="M1984 1080L0 1080 L0 838.13Q14.75 692.88, 160 707.63Q214.47 666.1, 256 720.56Q353.34 721.89, 352 819.23Q334.93 706.16, 448 689.09Q599.96 681.05, 608 833.01Q702.82 767.83, 768 862.65Q769.25 767.9, 864 769.16Q908.79 653.95, 1024 698.74Q1088.57 667.31, 1120 731.88Q1211.38 727.26, 1216 818.65Q1303.01 745.65, 1376 832.66Q1408.14 768.8, 1472 800.94Q1499.17 732.12, 1568 759.29Q1585.21 680.5, 1664 697.71Q1749.32 623.03, 1824 708.34Q1963.69 688.03, 1984 827.72z" fill="#25467d"></path><path d="M1984 1080L0 1080 L0 823.28Q103.57 766.85, 160 870.41Q197.35 811.75, 256 849.1Q376.36 809.46, 416 929.82Q441.22 795.04, 576 820.25Q665.09 749.34, 736 838.42Q836.6 843.02, 832 943.62Q906.18 921.8, 928 995.98Q944.71 852.69, 1088 869.41Q1122.5 807.91, 1184 842.41Q1288.51 786.91, 1344 891.42Q1464.95 852.37, 1504 973.32Q1527.17 836.5, 1664 859.67Q1751.11 786.77, 1824 873.88Q1923.43 813.31, 1984 912.74z" fill="#356cb1"></path><path d="M1984 1080L0 1080 L0 1070.79Q43.86 954.65, 160 998.52Q214.55 957.07, 256 1011.61Q328.94 988.55, 352 1061.48Q456.8 1006.28, 512 1111.07Q513.65 1016.72, 608 1018.38Q666.69 917.07, 768 975.75Q876.59 924.34, 928 1032.92Q991.98 1000.9, 1024 1064.88Q1073.7 954.59, 1184 1004.29Q1210.21 934.5, 1280 960.72Q1336.45 921.17, 1376 977.63Q1442.37 948, 1472 1014.36Q1576.31 1022.67, 1568 1126.98Q1565.05 1028.03, 1664 1025.08Q1725.07 926.14, 1824 987.21Q1911.55 914.76, 1984 1002.31z" fill="white"></path></g><defs><mask id="SvgjsMask1671"><rect width="1920" height="1080" fill="#ffffff"></rect></mask></defs></svg>